<mxfile host="65bd71144e">
    <diagram id="avB6oWsG_BGmuV8E4eRQ" name="Page-1">
        <mxGraphModel dx="2310" dy="2437" grid="1" gridSize="10" guides="1" tooltips="1" connect="1" arrows="1" fold="1" page="1" pageScale="1" pageWidth="1100" pageHeight="850" math="0" shadow="0">
            <root>
                <mxCell id="0"/>
                <mxCell id="1" parent="0"/>
                <mxCell id="REft3iftiIWAuutHs3-6-1" value="&lt;&lt;abstract&gt;&gt;&#10;AbsCineman" style="swimlane;fontStyle=1;align=center;verticalAlign=top;childLayout=stackLayout;horizontal=1;startSize=40;horizontalStack=0;resizeParent=1;resizeParentMax=0;resizeLast=0;collapsible=1;marginBottom=0;fillColor=#f0a30a;strokeColor=#BD7000;fontColor=#000000;" parent="1" vertex="1">
                    <mxGeometry x="-520" y="-1070" width="250" height="360" as="geometry"/>
                </mxCell>
                <mxCell id="REft3iftiIWAuutHs3-6-2" value="# name: String&#10;# numOfHalls : int&#10;# numOfMovies : int&#10;# numOfParties : int&#10;# halls : ArrayList&lt;Hall&gt;&#10;# moviesArrayList : ArrayList&lt;Movie&gt;" style="text;strokeColor=none;fillColor=none;align=left;verticalAlign=top;spacingLeft=4;spacingRight=4;overflow=hidden;rotatable=0;points=[[0,0.5],[1,0.5]];portConstraint=eastwest;" parent="REft3iftiIWAuutHs3-6-1" vertex="1">
                    <mxGeometry y="40" width="250" height="100" as="geometry"/>
                </mxCell>
                <mxCell id="REft3iftiIWAuutHs3-6-3" value="" style="line;strokeWidth=1;fillColor=none;align=left;verticalAlign=middle;spacingTop=-1;spacingLeft=3;spacingRight=3;rotatable=0;labelPosition=right;points=[];portConstraint=eastwest;" parent="REft3iftiIWAuutHs3-6-1" vertex="1">
                    <mxGeometry y="140" width="250" height="8" as="geometry"/>
                </mxCell>
                <mxCell id="REft3iftiIWAuutHs3-6-4" value="+ setName(String): void&#10;+ getName(): String&#10;+ setNumOfHalls(int): void&#10;+ getNumOfHalls(): int&#10;+ setNumOfMovies(int): void&#10;+ getNumOfMovies(): int&#10;+ setNumOfParties(int): void&#10;+ getNumOfParties(): int&#10;+ hall(int): Hall&#10;# generateHalls(int): void&#10;# addMovies(String[][]): void&#10;# assignMovieToHall(): void&#10;+ movie(int): Movie" style="text;align=left;verticalAlign=top;spacingLeft=4;spacingRight=4;overflow=hidden;rotatable=0;points=[[0,0.5],[1,0.5]];portConstraint=eastwest;" parent="REft3iftiIWAuutHs3-6-1" vertex="1">
                    <mxGeometry y="148" width="250" height="212" as="geometry"/>
                </mxCell>
                <mxCell id="REft3iftiIWAuutHs3-6-5" value="Party" style="swimlane;fontStyle=1;align=center;verticalAlign=top;childLayout=stackLayout;horizontal=1;startSize=26;horizontalStack=0;resizeParent=1;resizeParentMax=0;resizeLast=0;collapsible=1;marginBottom=0;fillColor=#647687;strokeColor=#314354;fontColor=#ffffff;" parent="1" vertex="1">
                    <mxGeometry x="160" y="-180" width="160" height="250" as="geometry"/>
                </mxCell>
                <mxCell id="REft3iftiIWAuutHs3-6-6" value="- from : String&lt;br&gt;- to : String&lt;br&gt;&lt;u&gt;- TotalNumOfSeats : int&lt;/u&gt;&lt;br&gt;&lt;u&gt;- NumOfSections : int&lt;/u&gt;&lt;br&gt;- movie : Movie&lt;br&gt;- secA : ArrayList&amp;lt;Seat&amp;gt;&lt;br&gt;- secB : ArrayList&amp;lt;Seat&amp;gt;&lt;br&gt;- secC : ArrayList&amp;lt;Seat&amp;gt;" style="text;strokeColor=none;fillColor=none;align=left;verticalAlign=top;spacingLeft=4;spacingRight=4;overflow=hidden;rotatable=0;points=[[0,0.5],[1,0.5]];portConstraint=eastwest;fontStyle=0;html=1;" parent="REft3iftiIWAuutHs3-6-5" vertex="1">
                    <mxGeometry y="26" width="160" height="124" as="geometry"/>
                </mxCell>
                <mxCell id="REft3iftiIWAuutHs3-6-7" value="" style="line;strokeWidth=1;fillColor=none;align=left;verticalAlign=middle;spacingTop=-1;spacingLeft=3;spacingRight=3;rotatable=0;labelPosition=right;points=[];portConstraint=eastwest;" parent="REft3iftiIWAuutHs3-6-5" vertex="1">
                    <mxGeometry y="150" width="160" height="8" as="geometry"/>
                </mxCell>
                <mxCell id="REft3iftiIWAuutHs3-6-8" value="+ Party(String, String)&#10;- generateSeats(): void&#10;+ seat(String, int): Seat&#10;+ countAvSeats(): int&#10;+ toString(): String" style="text;strokeColor=none;fillColor=none;align=left;verticalAlign=top;spacingLeft=4;spacingRight=4;overflow=hidden;rotatable=0;points=[[0,0.5],[1,0.5]];portConstraint=eastwest;" parent="REft3iftiIWAuutHs3-6-5" vertex="1">
                    <mxGeometry y="158" width="160" height="92" as="geometry"/>
                </mxCell>
                <mxCell id="REft3iftiIWAuutHs3-6-14" value="Seat" style="swimlane;fontStyle=1;align=center;verticalAlign=top;childLayout=stackLayout;horizontal=1;startSize=26;horizontalStack=0;resizeParent=1;resizeParentMax=0;resizeLast=0;collapsible=1;marginBottom=0;strokeColor=#C73500;html=1;fillColor=#fa6800;fontColor=#000000;" parent="1" vertex="1">
                    <mxGeometry x="290" y="-500" width="160" height="190" as="geometry"/>
                </mxCell>
                <mxCell id="REft3iftiIWAuutHs3-6-15" value="- section : char&lt;br&gt;- index : int&lt;br&gt;- free : Boolean" style="text;strokeColor=none;fillColor=none;align=left;verticalAlign=top;spacingLeft=4;spacingRight=4;overflow=hidden;rotatable=0;points=[[0,0.5],[1,0.5]];portConstraint=eastwest;html=1;" parent="REft3iftiIWAuutHs3-6-14" vertex="1">
                    <mxGeometry y="26" width="160" height="64" as="geometry"/>
                </mxCell>
                <mxCell id="REft3iftiIWAuutHs3-6-16" value="" style="line;strokeWidth=1;fillColor=none;align=left;verticalAlign=middle;spacingTop=-1;spacingLeft=3;spacingRight=3;rotatable=0;labelPosition=right;points=[];portConstraint=eastwest;html=1;" parent="REft3iftiIWAuutHs3-6-14" vertex="1">
                    <mxGeometry y="90" width="160" height="8" as="geometry"/>
                </mxCell>
                <mxCell id="REft3iftiIWAuutHs3-6-17" value="+ Seat(char, int)&lt;br&gt;+ state(): Boolen&lt;br&gt;+ reserve(): void&lt;br&gt;+ reclaim(): void&lt;br&gt;+ toString(): String" style="text;strokeColor=none;fillColor=none;align=left;verticalAlign=top;spacingLeft=4;spacingRight=4;overflow=hidden;rotatable=0;points=[[0,0.5],[1,0.5]];portConstraint=eastwest;html=1;" parent="REft3iftiIWAuutHs3-6-14" vertex="1">
                    <mxGeometry y="98" width="160" height="92" as="geometry"/>
                </mxCell>
                <mxCell id="REft3iftiIWAuutHs3-6-18" value="Movie" style="swimlane;fontStyle=1;align=center;verticalAlign=top;childLayout=stackLayout;horizontal=1;startSize=26;horizontalStack=0;resizeParent=1;resizeParentMax=0;resizeLast=0;collapsible=1;marginBottom=0;strokeColor=#432D57;html=1;fillColor=#76608a;fontColor=#ffffff;" parent="1" vertex="1">
                    <mxGeometry x="-180" y="-360" width="160" height="170" as="geometry"/>
                </mxCell>
                <mxCell id="REft3iftiIWAuutHs3-6-19" value="- title : String&lt;br&gt;- duration : int" style="text;strokeColor=none;fillColor=none;align=left;verticalAlign=top;spacingLeft=4;spacingRight=4;overflow=hidden;rotatable=0;points=[[0,0.5],[1,0.5]];portConstraint=eastwest;html=1;" parent="REft3iftiIWAuutHs3-6-18" vertex="1">
                    <mxGeometry y="26" width="160" height="54" as="geometry"/>
                </mxCell>
                <mxCell id="REft3iftiIWAuutHs3-6-20" value="" style="line;strokeWidth=1;fillColor=none;align=left;verticalAlign=middle;spacingTop=-1;spacingLeft=3;spacingRight=3;rotatable=0;labelPosition=right;points=[];portConstraint=eastwest;html=1;" parent="REft3iftiIWAuutHs3-6-18" vertex="1">
                    <mxGeometry y="80" width="160" height="8" as="geometry"/>
                </mxCell>
                <mxCell id="REft3iftiIWAuutHs3-6-21" value="+ Movie(String, int)&lt;br&gt;+ getTitle(): String&lt;br&gt;+ getDuration(): int&lt;br&gt;+ toString: String" style="text;strokeColor=none;fillColor=none;align=left;verticalAlign=top;spacingLeft=4;spacingRight=4;overflow=hidden;rotatable=0;points=[[0,0.5],[1,0.5]];portConstraint=eastwest;html=1;" parent="REft3iftiIWAuutHs3-6-18" vertex="1">
                    <mxGeometry y="88" width="160" height="82" as="geometry"/>
                </mxCell>
                <mxCell id="6" value="Hall" style="swimlane;fontStyle=1;align=center;verticalAlign=top;childLayout=stackLayout;horizontal=1;startSize=26;horizontalStack=0;resizeParent=1;resizeParentMax=0;resizeLast=0;collapsible=1;marginBottom=0;fillColor=#dae8fc;strokeColor=#6c8ebf;fontColor=#1F1F1F;" parent="1" vertex="1">
                    <mxGeometry x="-495" y="-150" width="200" height="220" as="geometry"/>
                </mxCell>
                <mxCell id="7" value="- movie: Movie&#10;- partiesSchedule: String[][]&#10;- partiesArrayList: ArrayList&lt;Party&gt;" style="text;strokeColor=none;fillColor=none;align=left;verticalAlign=top;spacingLeft=4;spacingRight=4;overflow=hidden;rotatable=0;points=[[0,0.5],[1,0.5]];portConstraint=eastwest;" parent="6" vertex="1">
                    <mxGeometry y="26" width="200" height="84" as="geometry"/>
                </mxCell>
                <mxCell id="8" value="" style="line;strokeWidth=1;fillColor=none;align=left;verticalAlign=middle;spacingTop=-1;spacingLeft=3;spacingRight=3;rotatable=0;labelPosition=right;points=[];portConstraint=eastwest;" parent="6" vertex="1">
                    <mxGeometry y="110" width="200" height="8" as="geometry"/>
                </mxCell>
                <mxCell id="9" value="+ Hall()&#10;+ setMovie(Movie): void&#10;+ getMovie(): Movie&#10;+ setParties(String[][]): void&#10;+ party(int): Party" style="text;strokeColor=none;fillColor=none;align=left;verticalAlign=top;spacingLeft=4;spacingRight=4;overflow=hidden;rotatable=0;points=[[0,0.5],[1,0.5]];portConstraint=eastwest;" parent="6" vertex="1">
                    <mxGeometry y="118" width="200" height="102" as="geometry"/>
                </mxCell>
                <mxCell id="10" value="Employee" style="swimlane;fontStyle=1;align=center;verticalAlign=top;childLayout=stackLayout;horizontal=1;startSize=26;horizontalStack=0;resizeParent=1;resizeParentMax=0;resizeLast=0;collapsible=1;marginBottom=0;fillColor=#d80073;strokeColor=#A50040;fontColor=#ffffff;" parent="1" vertex="1">
                    <mxGeometry x="-140" y="-820" width="260" height="310" as="geometry"/>
                </mxCell>
                <mxCell id="11" value="- name: String&#10;- username: String&#10;- password: String&#10;- cinemaBranch: Cinema" style="text;strokeColor=none;fillColor=none;align=left;verticalAlign=top;spacingLeft=4;spacingRight=4;overflow=hidden;rotatable=0;points=[[0,0.5],[1,0.5]];portConstraint=eastwest;" parent="10" vertex="1">
                    <mxGeometry y="26" width="260" height="74" as="geometry"/>
                </mxCell>
                <mxCell id="12" value="" style="line;strokeWidth=1;fillColor=none;align=left;verticalAlign=middle;spacingTop=-1;spacingLeft=3;spacingRight=3;rotatable=0;labelPosition=right;points=[];portConstraint=eastwest;" parent="10" vertex="1">
                    <mxGeometry y="100" width="260" height="8" as="geometry"/>
                </mxCell>
                <mxCell id="13" value="+ Employee(String, String, String, Cinema)&#10;+ setName(String): void&#10;+ getName(): String&#10;+ setUsername(String): void&#10;+ getUsername(): String&#10;+ setEmail(String): void&#10;+ getEmail(): String&#10;+ setPassword(String): void&#10;+ getPassword(): String&#10;+ login(String, String): Boolean&#10;+ reserveTicket(int, int, char, int): String&#10;+ cancelTicket(int, int, char, int): String&#10;+ emCheckAvSeats(int, int): int" style="text;strokeColor=none;fillColor=none;align=left;verticalAlign=top;spacingLeft=4;spacingRight=4;overflow=hidden;rotatable=0;points=[[0,0.5],[1,0.5]];portConstraint=eastwest;" parent="10" vertex="1">
                    <mxGeometry y="108" width="260" height="202" as="geometry"/>
                </mxCell>
                <mxCell id="14" value="&lt;p style=&quot;margin: 0px ; margin-top: 4px ; text-align: center&quot;&gt;&lt;i&gt;&amp;lt;&amp;lt;Interface&amp;gt;&amp;gt;&lt;/i&gt;&lt;br&gt;&lt;b&gt;CanFunction&lt;/b&gt;&lt;/p&gt;&lt;hr size=&quot;1&quot;&gt;&lt;p style=&quot;margin: 0px ; margin-left: 4px&quot;&gt;+ login(String, String): Boolean&lt;/p&gt;&lt;p style=&quot;margin: 0px ; margin-left: 4px&quot;&gt;+ reserveTicket(int, int, char, int): String&lt;/p&gt;&lt;p style=&quot;margin: 0px ; margin-left: 4px&quot;&gt;+ cancelTicket(int, int, char, int)&lt;/p&gt;&lt;p style=&quot;margin: 0px ; margin-left: 4px&quot;&gt;+ emCheckAvSeats(int, int): int&lt;/p&gt;" style="verticalAlign=top;align=left;overflow=fill;fontSize=12;fontFamily=Helvetica;html=1;fontColor=#ffffff;fillColor=#0050ef;strokeColor=#001DBC;" parent="1" vertex="1">
                    <mxGeometry x="-125" y="-1070" width="230" height="110" as="geometry"/>
                </mxCell>
                <mxCell id="15" value="Ticket" style="swimlane;fontStyle=1;align=center;verticalAlign=top;childLayout=stackLayout;horizontal=1;startSize=26;horizontalStack=0;resizeParent=1;resizeParentMax=0;resizeLast=0;collapsible=1;marginBottom=0;fontColor=#ffffff;fillColor=#a20025;strokeColor=#6F0000;" parent="1" vertex="1">
                    <mxGeometry x="310" y="-820" width="230" height="170" as="geometry"/>
                </mxCell>
                <mxCell id="16" value="&lt;u&gt;- numOfTickets : int&lt;/u&gt;&lt;br&gt;- id : int&lt;br&gt;- movieName : String&lt;br&gt;- party : String&lt;br&gt;- seat : String" style="text;strokeColor=none;fillColor=none;align=left;verticalAlign=top;spacingLeft=4;spacingRight=4;overflow=hidden;rotatable=0;points=[[0,0.5],[1,0.5]];portConstraint=eastwest;fontStyle=0;html=1;" parent="15" vertex="1">
                    <mxGeometry y="26" width="230" height="84" as="geometry"/>
                </mxCell>
                <mxCell id="17" value="" style="line;strokeWidth=1;fillColor=none;align=left;verticalAlign=middle;spacingTop=-1;spacingLeft=3;spacingRight=3;rotatable=0;labelPosition=right;points=[];portConstraint=eastwest;" parent="15" vertex="1">
                    <mxGeometry y="110" width="230" height="8" as="geometry"/>
                </mxCell>
                <mxCell id="18" value="+ Ticket(String, String, String)&#10;+ toString(): String" style="text;strokeColor=none;fillColor=none;align=left;verticalAlign=top;spacingLeft=4;spacingRight=4;overflow=hidden;rotatable=0;points=[[0,0.5],[1,0.5]];portConstraint=eastwest;" parent="15" vertex="1">
                    <mxGeometry y="118" width="230" height="52" as="geometry"/>
                </mxCell>
                <mxCell id="19" value="Cinema" style="swimlane;fontStyle=1;align=center;verticalAlign=top;childLayout=stackLayout;horizontal=1;startSize=26;horizontalStack=0;resizeParent=1;resizeParentMax=0;resizeLast=0;collapsible=1;marginBottom=0;fontColor=#ffffff;html=1;fillColor=#6a00ff;strokeColor=#3700CC;" parent="1" vertex="1">
                    <mxGeometry x="-485" y="-570" width="180" height="250" as="geometry"/>
                </mxCell>
                <mxCell id="22" value="+ Cinema(String, int, int, int)&#10;+ setName(String): void&#10;+ getName(): String&#10;+ setNumOfHalls(int): void&#10;+ getNumOfHalls(): int&#10;+ setNumOfMovies(int): void&#10;+ getNumOfMovies(): int&#10;+ setNumOfParties(int): void&#10;+ getNumOfParties(): int&#10;+ hall(int): Hall&#10;# generateHalls(int): void&#10;# addMovies(String[][]): void&#10;# assignMovieToHall(): void&#10;+ movie(int): Movie" style="text;strokeColor=none;fillColor=none;align=left;verticalAlign=top;spacingLeft=4;spacingRight=4;overflow=hidden;rotatable=0;points=[[0,0.5],[1,0.5]];portConstraint=eastwest;" parent="19" vertex="1">
                    <mxGeometry y="26" width="180" height="216" as="geometry"/>
                </mxCell>
                <mxCell id="21" value="" style="line;strokeWidth=1;fillColor=none;align=left;verticalAlign=middle;spacingTop=-1;spacingLeft=3;spacingRight=3;rotatable=0;labelPosition=right;points=[];portConstraint=eastwest;" parent="19" vertex="1">
                    <mxGeometry y="242" width="180" height="8" as="geometry"/>
                </mxCell>
                <mxCell id="36" value="Extends" style="endArrow=block;endSize=16;endFill=0;html=1;exitX=0.5;exitY=0;exitDx=0;exitDy=0;" parent="1" source="19" target="REft3iftiIWAuutHs3-6-4" edge="1">
                    <mxGeometry width="160" relative="1" as="geometry">
                        <mxPoint x="-465" y="-650" as="sourcePoint"/>
                        <mxPoint x="-305" y="-650" as="targetPoint"/>
                    </mxGeometry>
                </mxCell>
                <mxCell id="38" value="" style="endArrow=diamondThin;endFill=0;endSize=24;html=1;exitX=-0.016;exitY=0.326;exitDx=0;exitDy=0;exitPerimeter=0;edgeStyle=entityRelationEdgeStyle;" parent="1" source="13" target="22" edge="1">
                    <mxGeometry width="160" relative="1" as="geometry">
                        <mxPoint x="-100" y="-440" as="sourcePoint"/>
                        <mxPoint x="-280" y="-600" as="targetPoint"/>
                    </mxGeometry>
                </mxCell>
                <mxCell id="39" value="" style="endArrow=block;dashed=1;endFill=0;endSize=12;html=1;exitX=0.5;exitY=0;exitDx=0;exitDy=0;" parent="1" source="10" target="14" edge="1">
                    <mxGeometry width="160" relative="1" as="geometry">
                        <mxPoint x="-120" y="-720" as="sourcePoint"/>
                        <mxPoint x="-10" y="-950" as="targetPoint"/>
                    </mxGeometry>
                </mxCell>
                <mxCell id="40" value="" style="endArrow=diamondThin;endFill=1;endSize=24;html=1;entryX=0.5;entryY=1;entryDx=0;entryDy=0;exitX=0.5;exitY=0;exitDx=0;exitDy=0;" parent="1" source="6" target="19" edge="1">
                    <mxGeometry width="160" relative="1" as="geometry">
                        <mxPoint x="-400" y="-180" as="sourcePoint"/>
                        <mxPoint x="-370" y="-280" as="targetPoint"/>
                    </mxGeometry>
                </mxCell>
                <mxCell id="41" value="" style="endArrow=diamondThin;endFill=1;endSize=24;html=1;exitX=0.25;exitY=0;exitDx=0;exitDy=0;entryX=0.996;entryY=0.575;entryDx=0;entryDy=0;entryPerimeter=0;edgeStyle=orthogonalEdgeStyle;" parent="1" source="REft3iftiIWAuutHs3-6-18" target="22" edge="1">
                    <mxGeometry width="160" relative="1" as="geometry">
                        <mxPoint x="-90" y="-410" as="sourcePoint"/>
                        <mxPoint x="-290" y="-410" as="targetPoint"/>
                    </mxGeometry>
                </mxCell>
                <mxCell id="43" value="" style="endArrow=diamondThin;endFill=1;endSize=24;html=1;exitX=0;exitY=0.5;exitDx=0;exitDy=0;entryX=1;entryY=0.5;entryDx=0;entryDy=0;" parent="1" source="REft3iftiIWAuutHs3-6-8" target="9" edge="1">
                    <mxGeometry width="160" relative="1" as="geometry">
                        <mxPoint x="-170" y="-30" as="sourcePoint"/>
                        <mxPoint x="-250" y="-30" as="targetPoint"/>
                    </mxGeometry>
                </mxCell>
                <mxCell id="44" value="" style="endArrow=diamondThin;endFill=1;endSize=24;html=1;entryX=0.566;entryY=0.001;entryDx=0;entryDy=0;entryPerimeter=0;exitX=-0.027;exitY=0.646;exitDx=0;exitDy=0;exitPerimeter=0;" parent="1" source="REft3iftiIWAuutHs3-6-17" target="REft3iftiIWAuutHs3-6-5" edge="1">
                    <mxGeometry width="160" relative="1" as="geometry">
                        <mxPoint x="251" y="-360" as="sourcePoint"/>
                        <mxPoint x="320" y="-280" as="targetPoint"/>
                        <Array as="points">
                            <mxPoint x="251" y="-340"/>
                            <mxPoint x="250" y="-280"/>
                        </Array>
                    </mxGeometry>
                </mxCell>
                <mxCell id="46" value="" style="endArrow=diamondThin;endFill=0;endSize=24;html=1;edgeStyle=orthogonalEdgeStyle;exitX=0.166;exitY=1.025;exitDx=0;exitDy=0;exitPerimeter=0;entryX=1.008;entryY=0.289;entryDx=0;entryDy=0;entryPerimeter=0;" edge="1" parent="1" source="REft3iftiIWAuutHs3-6-21" target="7">
                    <mxGeometry width="160" relative="1" as="geometry">
                        <mxPoint x="-135" y="-100" as="sourcePoint"/>
                        <mxPoint x="-260" y="-100" as="targetPoint"/>
                        <Array as="points">
                            <mxPoint x="-153" y="-100"/>
                        </Array>
                    </mxGeometry>
                </mxCell>
                <mxCell id="47" value="" style="endArrow=open;endFill=1;endSize=12;html=1;exitX=0.3;exitY=1.126;exitDx=0;exitDy=0;exitPerimeter=0;entryX=0.569;entryY=0.003;entryDx=0;entryDy=0;entryPerimeter=0;" edge="1" parent="1" source="18" target="REft3iftiIWAuutHs3-6-14">
                    <mxGeometry width="160" relative="1" as="geometry">
                        <mxPoint x="380" y="-610" as="sourcePoint"/>
                        <mxPoint x="379" y="-499" as="targetPoint"/>
                    </mxGeometry>
                </mxCell>
                <mxCell id="49" value="" style="endArrow=diamondThin;endFill=1;endSize=24;html=1;entryX=1.014;entryY=0.109;entryDx=0;entryDy=0;entryPerimeter=0;exitX=0.004;exitY=0.211;exitDx=0;exitDy=0;exitPerimeter=0;" edge="1" parent="1" source="18" target="13">
                    <mxGeometry width="160" relative="1" as="geometry">
                        <mxPoint x="300" y="-690" as="sourcePoint"/>
                        <mxPoint x="140" y="-690" as="targetPoint"/>
                    </mxGeometry>
                </mxCell>
            </root>
        </mxGraphModel>
    </diagram>
</mxfile>